<?xml version="1.0" encoding="utf-8"?>
<!-- Generator: Adobe Illustrator 17.1.0, SVG Export Plug-In . SVG Version: 6.00 Build 0)  -->
<!DOCTYPE svg PUBLIC "-//W3C//DTD SVG 1.1//EN" "http://www.w3.org/Graphics/SVG/1.1/DTD/svg11.dtd">
<svg version="1.1"
	 id="svg3844" sodipodi:docname="us-highway-2.svg" inkscape:version="0.48.4 r9939" xmlns:sodipodi="http://sodipodi.sourceforge.net/DTD/sodipodi-0.dtd" xmlns:svg="http://www.w3.org/2000/svg" xmlns:rdf="http://www.w3.org/1999/02/22-rdf-syntax-ns#" xmlns:inkscape="http://www.inkscape.org/namespaces/inkscape" xmlns:dc="http://purl.org/dc/elements/1.1/" xmlns:cc="http://creativecommons.org/ns#"
	 xmlns="http://www.w3.org/2000/svg" xmlns:xlink="http://www.w3.org/1999/xlink" x="0px" y="0px" width="17px" height="22px"
	 viewBox="0 0 17 22" enable-background="new 0 0 17 22" xml:space="preserve">
<sodipodi:namedview  inkscape:object-nodes="true" inkscape:current-layer="layer1" inkscape:pageopacity="0.0" inkscape:document-units="px" inkscape:pageshadow="2" showgrid="true" inkscape:cy="13.641114" fit-margin-left="0" fit-margin-top="0" bordercolor="#666666" borderopacity="1.0" pagecolor="#ffffff" id="base" inkscape:zoom="22.627417" inkscape:cx="15.062838" inkscape:snap-bbox="false" inkscape:window-maximized="1" inkscape:window-y="24" inkscape:window-x="65" inkscape:window-height="1056" inkscape:window-width="1855" fit-margin-bottom="0" fit-margin-right="0">
	
		<inkscape:grid  type="xygrid" spacingx="0.5px" spacingy="0.5px" enabled="true" visible="true" id="grid3875" empspacing="2" originx="-301px" originy="-129px" snapvisiblegridlinesonly="true">
		</inkscape:grid>
</sodipodi:namedview>
<g id="layer1" transform="translate(-301,-901.36218)" inkscape:label="Layer 1" inkscape:groupmode="layer">
	
		<path id="path3799" sodipodi:nodetypes="ccsscsscccc" inkscape:connector-curvature="0" fill="#FFFFFF" stroke="#000000" stroke-linecap="round" stroke-linejoin="round" d="
		M304.5,902.4l-3,2.5c0.5,0.5,2,1.5,1,3.5s-1.5,10,0.5,12c2.5,2.5,5.5,0.5,6.5,2.5c1-2,4,0,6.5-2.5c2-2,1.5-10,0.5-12s0.5-3,1-3.5
		l-3-2.5c-2,1-2.5,2-5,0C307,904.4,306.5,903.4,304.5,902.4z"/>
	<rect id="rect3803" x="301" y="901.4" fill-opacity="0" width="17" height="22"/>
</g>
</svg>
