<?xml version="1.0" encoding="utf-8"?>
<!-- Generator: Adobe Illustrator 17.1.0, SVG Export Plug-In . SVG Version: 6.00 Build 0)  -->
<!DOCTYPE svg PUBLIC "-//W3C//DTD SVG 1.1//EN" "http://www.w3.org/Graphics/SVG/1.1/DTD/svg11.dtd">
<svg version="1.1"
	 id="svg5037" sodipodi:docname="us-state-2.svg" inkscape:version="0.48.4 r9939" xmlns:sodipodi="http://sodipodi.sourceforge.net/DTD/sodipodi-0.dtd" xmlns:svg="http://www.w3.org/2000/svg" xmlns:rdf="http://www.w3.org/1999/02/22-rdf-syntax-ns#" xmlns:inkscape="http://www.inkscape.org/namespaces/inkscape" xmlns:dc="http://purl.org/dc/elements/1.1/" xmlns:cc="http://creativecommons.org/ns#"
	 xmlns="http://www.w3.org/2000/svg" xmlns:xlink="http://www.w3.org/1999/xlink" x="0px" y="0px" width="22px" height="14px"
	 viewBox="0 0 22 14" enable-background="new 0 0 22 14" xml:space="preserve">
<sodipodi:namedview  inkscape:current-layer="generic-md-2" inkscape:pageopacity="0.0" inkscape:document-units="px" inkscape:pageshadow="2" showgrid="false" inkscape:cy="6.047226" fit-margin-left="0" fit-margin-top="0" bordercolor="#666666" borderopacity="1.0" pagecolor="#ffffff" id="base" inkscape:zoom="11.2" inkscape:cx="16.419267" inkscape:window-maximized="0" inkscape:window-y="308" inkscape:window-x="609" inkscape:window-height="386" inkscape:window-width="461" fit-margin-bottom="0" fit-margin-right="0">
	</sodipodi:namedview>
<g id="layer1" transform="translate(-54.999985,-923.36218)" inkscape:label="Layer 1" inkscape:groupmode="layer">
	<g id="generic-md-2" transform="translate(-180,480)" inkscape:label="#g4390">
		<path id="rect3449" inkscape:label="#rect3893" enable-background="new    " d="M242,443.4h8c3.9,0,7,3.1,7,7l0,0c0,3.9-3.1,7-7,7
			h-8c-3.9,0-7-3.1-7-7l0,0C235,446.5,238.1,443.4,242,443.4z"/>
		<path id="rect3451" inkscape:label="#rect3893" fill="#FFFFFF" d="M242,444.4h8c3.3,0,6,2.7,6,6l0,0c0,3.3-2.7,6-6,6h-8
			c-3.3,0-6-2.7-6-6l0,0C236,447,238.7,444.4,242,444.4z"/>
	</g>
</g>
</svg>
