<?xml version="1.0" encoding="utf-8"?>
<!-- Generator: Adobe Illustrator 17.1.0, SVG Export Plug-In . SVG Version: 6.00 Build 0)  -->
<!DOCTYPE svg PUBLIC "-//W3C//DTD SVG 1.1//EN" "http://www.w3.org/Graphics/SVG/1.1/DTD/svg11.dtd">
<svg version="1.1"
	 id="svg5088" sodipodi:docname="default-5.svg" inkscape:version="0.48.4 r9939" xmlns:sodipodi="http://sodipodi.sourceforge.net/DTD/sodipodi-0.dtd" xmlns:svg="http://www.w3.org/2000/svg" xmlns:rdf="http://www.w3.org/1999/02/22-rdf-syntax-ns#" xmlns:inkscape="http://www.inkscape.org/namespaces/inkscape" xmlns:dc="http://purl.org/dc/elements/1.1/" xmlns:cc="http://creativecommons.org/ns#"
	 xmlns="http://www.w3.org/2000/svg" xmlns:xlink="http://www.w3.org/1999/xlink" x="0px" y="0px" width="40px" height="13px"
	 viewBox="0 0 40 13" enable-background="new 0 0 40 13" xml:space="preserve">
<sodipodi:namedview  inkscape:current-layer="generic-md-3" inkscape:pageopacity="0.0" inkscape:document-units="px" inkscape:pageshadow="2" showgrid="true" inkscape:cy="3.1536623" fit-margin-left="0" fit-margin-top="0" bordercolor="#666666" borderopacity="1.0" pagecolor="#ffffff" id="base" inkscape:zoom="22.627417" inkscape:cx="41.389507" inkscape:snap-bbox="true" inkscape:window-maximized="0" inkscape:window-y="439" inkscape:window-x="354" inkscape:window-height="613" inkscape:window-width="981" fit-margin-bottom="0" fit-margin-right="0">
	
		<inkscape:grid  type="xygrid" enabled="true" visible="true" id="grid3074" empspacing="5" originx="7.7636721e-07px" originy="5.9442139e-06px" snapvisiblegridlinesonly="true">
		</inkscape:grid>
</sodipodi:namedview>
<g id="layer1" transform="translate(-54.999985,-944.36218)" inkscape:label="Layer 1" inkscape:groupmode="layer">
	<g id="generic-md-3" transform="translate(-180,480)" inkscape:label="#g4394">
		<path id="rect3455" inkscape:label="#rect3893" enable-background="new    " d="M237,464.4h36c1.1,0,2,0.9,2,2v9c0,1.1-0.9,2-2,2
			h-36c-1.1,0-2-0.9-2-2v-9C235,465.3,235.9,464.4,237,464.4z"/>
		<path id="rect3457" inkscape:label="#rect3893" fill="#FFFFFF" d="M237,465.4h36c0.6,0,1,0.4,1,1v9c0,0.6-0.4,1-1,1h-36
			c-0.6,0-1-0.4-1-1v-9C236,465.8,236.4,465.4,237,465.4z"/>
	</g>
</g>
</svg>
