<?xml version="1.0" encoding="utf-8"?>
<!-- Generator: Adobe Illustrator 17.1.0, SVG Export Plug-In . SVG Version: 6.00 Build 0)  -->
<!DOCTYPE svg PUBLIC "-//W3C//DTD SVG 1.1//EN" "http://www.w3.org/Graphics/SVG/1.1/DTD/svg11.dtd">
<svg version="1.1"
	 id="svg4845" sodipodi:docname="mx-federal-2.svg" inkscape:version="0.91 r" xmlns:sodipodi="http://sodipodi.sourceforge.net/DTD/sodipodi-0.dtd" xmlns:svg="http://www.w3.org/2000/svg" xmlns:rdf="http://www.w3.org/1999/02/22-rdf-syntax-ns#" xmlns:inkscape="http://www.inkscape.org/namespaces/inkscape" xmlns:dc="http://purl.org/dc/elements/1.1/" xmlns:cc="http://creativecommons.org/ns#"
	 xmlns="http://www.w3.org/2000/svg" xmlns:xlink="http://www.w3.org/1999/xlink" x="0px" y="0px" width="17px" height="21px"
	 viewBox="0 0 17 21" enable-background="new 0 0 17 21" xml:space="preserve">
<sodipodi:namedview  inkscape:snap-smooth-nodes="true" inkscape:object-nodes="true" inkscape:object-paths="false" inkscape:snap-text-baseline="true" inkscape:bbox-nodes="true" inkscape:snap-nodes="true" inkscape:current-layer="layer1" inkscape:pageopacity="0.0" inkscape:document-units="px" inkscape:pageshadow="2" units="px" showborder="true" showgrid="true" inkscape:cy="4.7419301" fit-margin-left="0" fit-margin-top="0" bordercolor="#666666" borderopacity="1.0" pagecolor="#ffffff" id="base" inkscape:zoom="16" inkscape:cx="2.2028969" inkscape:snap-bbox="true" inkscape:window-maximized="1" inkscape:window-y="24" inkscape:window-x="0" inkscape:window-height="1056" inkscape:window-width="1920" fit-margin-bottom="0" fit-margin-right="0">
	<inkscape:grid  type="xygrid" id="grid5513" originx="-3945" originy="1770"></inkscape:grid>
</sodipodi:namedview>
<g id="layer1" transform="translate(-1315,-1621.3622)" inkscape:label="Layer 1" inkscape:groupmode="layer">
	<rect id="rect5549" x="1315" y="1621.4" fill="#E6E6E6" fill-opacity="0" width="17" height="21"/>
	
		<path id="path4616" sodipodi:nodetypes="ccccccccccc" inkscape:connector-curvature="0" fill="#FFFFFF" stroke="#000000" stroke-linecap="round" stroke-linejoin="round" d="
		M1317.5,1622.9l-2,2v2.5c1.5,1,1.5,3,0,4c0,8,6.3,10.1,8,10.5c1.6-0.4,8.1-3.3,8-10.5c-1.5-1-1.5-3,0-4v-2.5l-2-2
		c-1.5,1.5-4.5,1.5-6,0C1322,1624.4,1319,1624.4,1317.5,1622.9z"/>
	
		<path id="path5547" sodipodi:nodetypes="cc" inkscape:connector-curvature="0" fill="none" stroke="#000000" stroke-linecap="round" stroke-linejoin="round" d="
		M1316,1627.4c3-1,12-1,15,0"/>
</g>
</svg>
