<?xml version="1.0" encoding="utf-8"?>
<!-- Generator: Adobe Illustrator 17.1.0, SVG Export Plug-In . SVG Version: 6.00 Build 0)  -->
<!DOCTYPE svg PUBLIC "-//W3C//DTD SVG 1.1//EN" "http://www.w3.org/Graphics/SVG/1.1/DTD/svg11.dtd">
<svg version="1.1"
	 id="svg5088" sodipodi:docname="us-state-4.svg" inkscape:version="0.48.4 r9939" xmlns:sodipodi="http://sodipodi.sourceforge.net/DTD/sodipodi-0.dtd" xmlns:svg="http://www.w3.org/2000/svg" xmlns:rdf="http://www.w3.org/1999/02/22-rdf-syntax-ns#" xmlns:inkscape="http://www.inkscape.org/namespaces/inkscape" xmlns:dc="http://purl.org/dc/elements/1.1/" xmlns:cc="http://creativecommons.org/ns#"
	 xmlns="http://www.w3.org/2000/svg" xmlns:xlink="http://www.w3.org/1999/xlink" x="0px" y="0px" width="37px" height="14px"
	 viewBox="0 0 37 14" enable-background="new 0 0 37 14" xml:space="preserve">
<sodipodi:namedview  inkscape:current-layer="generic-md-3" inkscape:pageopacity="0.0" inkscape:document-units="px" inkscape:pageshadow="2" showgrid="true" inkscape:cy="6.0870811" fit-margin-left="0" fit-margin-top="0" bordercolor="#666666" borderopacity="1.0" pagecolor="#ffffff" id="base" inkscape:zoom="22.4" inkscape:cx="28.335229" inkscape:snap-bbox="true" inkscape:window-maximized="0" inkscape:window-y="298" inkscape:window-x="199" inkscape:window-height="706" inkscape:window-width="1196" fit-margin-bottom="0" fit-margin-right="0">
	
		<inkscape:grid  type="xygrid" enabled="true" visible="true" id="grid5549" empspacing="5" originx="2.5878907e-07px" originy="2.6171875e-06px" snapvisiblegridlinesonly="true">
		</inkscape:grid>
</sodipodi:namedview>
<g id="layer1" transform="translate(-54.999985,-943.36218)" inkscape:label="Layer 1" inkscape:groupmode="layer">
	<g id="generic-md-3" transform="translate(-180,480)" inkscape:label="#g4394">
		<path id="rect3455" inkscape:label="#rect3893" enable-background="new    " d="M242,463.4h23c3.9,0,7,3.1,7,7l0,0
			c0,3.9-3.1,7-7,7h-23c-3.9,0-7-3.1-7-7l0,0C235,466.5,238.1,463.4,242,463.4z"/>
		<path id="rect3457" inkscape:label="#rect3893" fill="#FFFFFF" d="M242,464.4h23c3.3,0,6,2.7,6,6l0,0c0,3.3-2.7,6-6,6h-23
			c-3.3,0-6-2.7-6-6l0,0C236,467,238.7,464.4,242,464.4z"/>
	</g>
</g>
</svg>
