<?xml version="1.0" encoding="utf-8"?>
<!-- Generator: Adobe Illustrator 18.1.0, SVG Export Plug-In . SVG Version: 6.00 Build 0)  -->
<!DOCTYPE svg PUBLIC "-//W3C//DTD SVG 1.1//EN" "http://www.w3.org/Graphics/SVG/1.1/DTD/svg11.dtd">
<svg version="1.1"
	 id="Layer_1" xmlns:rdf="http://www.w3.org/1999/02/22-rdf-syntax-ns#" xmlns:cc="http://creativecommons.org/ns#" xmlns:dc="http://purl.org/dc/elements/1.1/"
	 xmlns="http://www.w3.org/2000/svg" xmlns:xlink="http://www.w3.org/1999/xlink" x="0px" y="0px" viewBox="-3 5 8 8"
	 enable-background="new -3 5 8 8" xml:space="preserve">
<g transform="translate(0,-1044.3622)">
	<rect x="-3" y="1049.4" fill="none" width="8" height="8"/>
</g>
<circle fill="#383838" cx="-3" cy="5" r="0.8"/>
<circle fill="#383838" cx="-3" cy="13" r="0.8"/>
<circle fill="#383838" cx="-3" cy="11" r="0.8"/>
<circle fill="#383838" cx="-3" cy="9" r="0.8"/>
<circle fill="#383838" cx="-3" cy="7" r="0.8"/>
<path fill="#383838" d="M-1,5.8c-0.4,0-0.8-0.3-0.8-0.8c0-0.4,0.3-0.8,0.8-0.8c0.4,0,0.8,0.3,0.8,0.8C-0.2,5.4-0.6,5.8-1,5.8"/>
<path fill="#383838" d="M1,5.8C0.6,5.8,0.2,5.5,0.2,5c0-0.4,0.3-0.8,0.8-0.8c0.4,0,0.8,0.3,0.8,0.8C1.8,5.4,1.4,5.8,1,5.8"/>
<path fill="#383838" d="M3,5.8C2.6,5.8,2.2,5.5,2.2,5c0-0.4,0.3-0.8,0.8-0.8c0.4,0,0.8,0.3,0.8,0.8C3.8,5.4,3.4,5.8,3,5.8"/>
<circle fill="#383838" cx="5" cy="5" r="0.8"/>
<path fill="#383838" d="M-1,13.8c-0.4,0-0.8-0.3-0.8-0.8c0-0.4,0.3-0.8,0.8-0.8c0.4,0,0.8,0.3,0.8,0.8C-0.2,13.4-0.6,13.8-1,13.8"/>
<path fill="#383838" d="M1,13.8c-0.4,0-0.8-0.3-0.8-0.8c0-0.4,0.3-0.8,0.8-0.8c0.4,0,0.8,0.3,0.8,0.8C1.8,13.4,1.4,13.8,1,13.8"/>
<path fill="#383838" d="M3,13.8c-0.4,0-0.8-0.3-0.8-0.8c0-0.4,0.3-0.8,0.8-0.8c0.4,0,0.8,0.3,0.8,0.8C3.8,13.4,3.4,13.8,3,13.8"/>
<circle fill="#383838" cx="5" cy="13" r="0.8"/>
<path fill="#383838" d="M-1,11.8c-0.4,0-0.8-0.3-0.8-0.8c0-0.4,0.3-0.8,0.8-0.8c0.4,0,0.8,0.3,0.8,0.8C-0.2,11.4-0.6,11.8-1,11.8"/>
<path fill="#383838" d="M1,11.8c-0.4,0-0.8-0.3-0.8-0.8c0-0.4,0.3-0.8,0.8-0.8c0.4,0,0.8,0.3,0.8,0.8C1.8,11.4,1.4,11.8,1,11.8"/>
<path fill="#383838" d="M3,11.8c-0.4,0-0.8-0.3-0.8-0.8c0-0.4,0.3-0.8,0.8-0.8c0.4,0,0.8,0.3,0.8,0.8C3.8,11.4,3.4,11.8,3,11.8"/>
<circle fill="#383838" cx="5" cy="11" r="0.8"/>
<path fill="#383838" d="M-1,9.8c-0.4,0-0.8-0.3-0.8-0.8c0-0.4,0.3-0.8,0.8-0.8c0.4,0,0.8,0.3,0.8,0.8C-0.2,9.4-0.6,9.8-1,9.8"/>
<path fill="#383838" d="M1,9.8C0.6,9.8,0.2,9.5,0.2,9c0-0.4,0.3-0.8,0.8-0.8c0.4,0,0.8,0.3,0.8,0.8C1.8,9.4,1.4,9.8,1,9.8"/>
<path fill="#383838" d="M3,9.8C2.6,9.8,2.2,9.5,2.2,9c0-0.4,0.3-0.8,0.8-0.8c0.4,0,0.8,0.3,0.8,0.8C3.8,9.4,3.4,9.8,3,9.8"/>
<circle fill="#383838" cx="5" cy="9" r="0.8"/>
<path fill="#383838" d="M-1,7.8c-0.4,0-0.8-0.3-0.8-0.8c0-0.4,0.3-0.8,0.8-0.8c0.4,0,0.8,0.3,0.8,0.8C-0.2,7.4-0.6,7.8-1,7.8"/>
<path fill="#383838" d="M1,7.8C0.6,7.8,0.2,7.5,0.2,7c0-0.4,0.3-0.8,0.8-0.8c0.4,0,0.8,0.3,0.8,0.8C1.8,7.4,1.4,7.8,1,7.8"/>
<path fill="#383838" d="M3,7.8C2.6,7.8,2.2,7.5,2.2,7c0-0.4,0.3-0.8,0.8-0.8c0.4,0,0.8,0.3,0.8,0.8C3.8,7.4,3.4,7.8,3,7.8"/>
<circle fill="#383838" cx="5" cy="7" r="0.8"/>
<path fill="#383838" d="M5,13.8c-0.4,0-0.8-0.3-0.8-0.8c0-0.4,0.3-0.8,0.8-0.8c0.4,0,0.8,0.3,0.8,0.8C5.8,13.4,5.4,13.8,5,13.8"/>
<path fill="#383838" d="M5,11.8c-0.4,0-0.8-0.3-0.8-0.8c0-0.4,0.3-0.8,0.8-0.8c0.4,0,0.8,0.3,0.8,0.8C5.8,11.4,5.4,11.8,5,11.8"/>
<path fill="#383838" d="M5,9.8C4.6,9.8,4.2,9.5,4.2,9c0-0.4,0.3-0.8,0.8-0.8c0.4,0,0.8,0.3,0.8,0.8C5.8,9.4,5.4,9.8,5,9.8"/>
<path fill="#383838" d="M5,7.8C4.6,7.8,4.2,7.5,4.2,7c0-0.4,0.3-0.8,0.8-0.8c0.4,0,0.8,0.3,0.8,0.8C5.8,7.4,5.4,7.8,5,7.8"/>
</svg>
